<mxfile host="app.diagrams.net" modified="2023-03-28T16:13:15.255Z" agent="Mozilla/5.0 (Windows NT 10.0; Win64; x64) AppleWebKit/537.36 (KHTML, like Gecko) Chrome/111.0.0.0 Safari/537.36" etag="ABoLfFUmz5dw-wJSXVLb" version="21.1.1" type="github">
  <diagram name="Página-1" id="l9rKi7rTntkkU8fmJwYw">
    <mxGraphModel dx="2100" dy="1162" grid="1" gridSize="10" guides="1" tooltips="1" connect="1" arrows="1" fold="1" page="1" pageScale="1" pageWidth="827" pageHeight="1169" math="0" shadow="0">
      <root>
        <mxCell id="0" />
        <mxCell id="1" parent="0" />
        <mxCell id="2ZF47CXnTHHWyCRd5WbP-11" value="" style="edgeStyle=orthogonalEdgeStyle;rounded=0;orthogonalLoop=1;jettySize=auto;html=1;" edge="1" parent="1" source="2ZF47CXnTHHWyCRd5WbP-2" target="2ZF47CXnTHHWyCRd5WbP-10">
          <mxGeometry relative="1" as="geometry" />
        </mxCell>
        <mxCell id="2ZF47CXnTHHWyCRd5WbP-21" style="edgeStyle=orthogonalEdgeStyle;rounded=0;orthogonalLoop=1;jettySize=auto;html=1;entryX=0.426;entryY=-0.022;entryDx=0;entryDy=0;entryPerimeter=0;" edge="1" parent="1" source="2ZF47CXnTHHWyCRd5WbP-10" target="2ZF47CXnTHHWyCRd5WbP-16">
          <mxGeometry relative="1" as="geometry" />
        </mxCell>
        <mxCell id="2ZF47CXnTHHWyCRd5WbP-10" value="&lt;font style=&quot;font-size: 14px;&quot;&gt;«Register»&lt;br&gt;&lt;b&gt;Name&lt;/b&gt;&lt;/font&gt;" style="html=1;whiteSpace=wrap;" vertex="1" parent="1">
          <mxGeometry x="90" y="10" width="150" height="80" as="geometry" />
        </mxCell>
        <mxCell id="2ZF47CXnTHHWyCRd5WbP-18" value="" style="group;fontSize=17;" vertex="1" connectable="0" parent="1">
          <mxGeometry x="40" y="140" width="215" height="80" as="geometry" />
        </mxCell>
        <mxCell id="2ZF47CXnTHHWyCRd5WbP-16" value="" style="rounded=0;whiteSpace=wrap;html=1;" vertex="1" parent="2ZF47CXnTHHWyCRd5WbP-18">
          <mxGeometry width="215" height="80" as="geometry" />
        </mxCell>
        <mxCell id="2ZF47CXnTHHWyCRd5WbP-14" value="" style="shape=image;html=1;verticalAlign=top;verticalLabelPosition=bottom;labelBackgroundColor=#ffffff;imageAspect=0;aspect=fixed;image=https://cdn4.iconfinder.com/data/icons/evil-icons-user-interface/64/question-128.png" vertex="1" parent="2ZF47CXnTHHWyCRd5WbP-18">
          <mxGeometry x="175" width="40" height="40" as="geometry" />
        </mxCell>
        <mxCell id="2ZF47CXnTHHWyCRd5WbP-20" value="Você treinou hoje" style="text;html=1;strokeColor=none;fillColor=none;align=left;verticalAlign=middle;whiteSpace=wrap;rounded=0;fontSize=20;" vertex="1" parent="2ZF47CXnTHHWyCRd5WbP-18">
          <mxGeometry x="7.5" y="10" width="200" height="60" as="geometry" />
        </mxCell>
        <mxCell id="2ZF47CXnTHHWyCRd5WbP-19" value="" style="group" vertex="1" connectable="0" parent="1">
          <mxGeometry x="320" y="10" width="210" height="60" as="geometry" />
        </mxCell>
        <mxCell id="2ZF47CXnTHHWyCRd5WbP-5" value="" style="rounded=1;whiteSpace=wrap;html=1;glass=0;" vertex="1" parent="2ZF47CXnTHHWyCRd5WbP-19">
          <mxGeometry width="210" height="60" as="geometry" />
        </mxCell>
        <mxCell id="2ZF47CXnTHHWyCRd5WbP-1" value="TrackTraining!" style="text;strokeColor=none;fillColor=none;html=1;fontSize=24;fontStyle=1;verticalAlign=middle;align=center;" vertex="1" parent="2ZF47CXnTHHWyCRd5WbP-19">
          <mxGeometry x="55" width="100" height="40" as="geometry" />
        </mxCell>
        <mxCell id="2ZF47CXnTHHWyCRd5WbP-2" value="Acompanhe o progresso do seu treino" style="text;strokeColor=none;fillColor=none;html=1;fontSize=12;fontStyle=0;verticalAlign=middle;align=center;" vertex="1" parent="2ZF47CXnTHHWyCRd5WbP-19">
          <mxGeometry x="55" y="20" width="100" height="40" as="geometry" />
        </mxCell>
        <mxCell id="2ZF47CXnTHHWyCRd5WbP-24" style="edgeStyle=orthogonalEdgeStyle;rounded=0;orthogonalLoop=1;jettySize=auto;html=1;" edge="1" parent="1" source="2ZF47CXnTHHWyCRd5WbP-20" target="2ZF47CXnTHHWyCRd5WbP-22">
          <mxGeometry relative="1" as="geometry" />
        </mxCell>
        <mxCell id="2ZF47CXnTHHWyCRd5WbP-25" value="" style="group" vertex="1" connectable="0" parent="1">
          <mxGeometry x="20" y="270" width="80" height="80" as="geometry" />
        </mxCell>
        <mxCell id="2ZF47CXnTHHWyCRd5WbP-22" value="" style="whiteSpace=wrap;html=1;aspect=fixed;" vertex="1" parent="2ZF47CXnTHHWyCRd5WbP-25">
          <mxGeometry width="80" height="80" as="geometry" />
        </mxCell>
        <mxCell id="2ZF47CXnTHHWyCRd5WbP-23" value="NÃO" style="text;html=1;strokeColor=none;fillColor=none;align=center;verticalAlign=middle;whiteSpace=wrap;rounded=0;fontSize=18;" vertex="1" parent="2ZF47CXnTHHWyCRd5WbP-25">
          <mxGeometry x="10" y="25" width="60" height="30" as="geometry" />
        </mxCell>
        <mxCell id="2ZF47CXnTHHWyCRd5WbP-27" value="" style="group" vertex="1" connectable="0" parent="1">
          <mxGeometry x="20" y="390" width="80" height="80" as="geometry" />
        </mxCell>
        <mxCell id="2ZF47CXnTHHWyCRd5WbP-28" value="" style="whiteSpace=wrap;html=1;aspect=fixed;" vertex="1" parent="2ZF47CXnTHHWyCRd5WbP-27">
          <mxGeometry width="80" height="80" as="geometry" />
        </mxCell>
        <mxCell id="2ZF47CXnTHHWyCRd5WbP-29" value="QUIT" style="text;html=1;strokeColor=none;fillColor=none;align=center;verticalAlign=middle;whiteSpace=wrap;rounded=0;fontSize=18;" vertex="1" parent="2ZF47CXnTHHWyCRd5WbP-27">
          <mxGeometry x="10" y="25" width="60" height="30" as="geometry" />
        </mxCell>
        <mxCell id="2ZF47CXnTHHWyCRd5WbP-31" style="edgeStyle=orthogonalEdgeStyle;rounded=0;orthogonalLoop=1;jettySize=auto;html=1;entryX=0.5;entryY=0;entryDx=0;entryDy=0;" edge="1" parent="1" source="2ZF47CXnTHHWyCRd5WbP-22" target="2ZF47CXnTHHWyCRd5WbP-28">
          <mxGeometry relative="1" as="geometry" />
        </mxCell>
        <mxCell id="2ZF47CXnTHHWyCRd5WbP-32" value="" style="group" vertex="1" connectable="0" parent="1">
          <mxGeometry x="400" y="80" width="65" height="60" as="geometry" />
        </mxCell>
        <mxCell id="2ZF47CXnTHHWyCRd5WbP-33" value="" style="whiteSpace=wrap;html=1;aspect=fixed;" vertex="1" parent="2ZF47CXnTHHWyCRd5WbP-32">
          <mxGeometry width="60" height="60" as="geometry" />
        </mxCell>
        <mxCell id="2ZF47CXnTHHWyCRd5WbP-34" value="SIM" style="text;html=1;strokeColor=none;fillColor=none;align=center;verticalAlign=middle;whiteSpace=wrap;rounded=0;fontSize=18;" vertex="1" parent="2ZF47CXnTHHWyCRd5WbP-32">
          <mxGeometry x="8.125" y="18.75" width="48.75" height="22.5" as="geometry" />
        </mxCell>
        <mxCell id="2ZF47CXnTHHWyCRd5WbP-35" style="edgeStyle=orthogonalEdgeStyle;rounded=0;orthogonalLoop=1;jettySize=auto;html=1;entryX=0;entryY=0.25;entryDx=0;entryDy=0;" edge="1" parent="1" source="2ZF47CXnTHHWyCRd5WbP-20" target="2ZF47CXnTHHWyCRd5WbP-33">
          <mxGeometry relative="1" as="geometry" />
        </mxCell>
        <mxCell id="2ZF47CXnTHHWyCRd5WbP-36" value="Actor" style="shape=umlActor;verticalLabelPosition=bottom;verticalAlign=top;html=1;outlineConnect=0;" vertex="1" parent="1">
          <mxGeometry x="210" y="50" width="20" height="30" as="geometry" />
        </mxCell>
        <mxCell id="2ZF47CXnTHHWyCRd5WbP-37" value="" style="group;fontSize=17;" vertex="1" connectable="0" parent="1">
          <mxGeometry x="360" y="170" width="215" height="80" as="geometry" />
        </mxCell>
        <mxCell id="2ZF47CXnTHHWyCRd5WbP-38" value="" style="rounded=0;whiteSpace=wrap;html=1;" vertex="1" parent="2ZF47CXnTHHWyCRd5WbP-37">
          <mxGeometry width="215" height="80" as="geometry" />
        </mxCell>
        <mxCell id="2ZF47CXnTHHWyCRd5WbP-39" value="" style="shape=image;html=1;verticalAlign=top;verticalLabelPosition=bottom;labelBackgroundColor=#ffffff;imageAspect=0;aspect=fixed;image=https://cdn4.iconfinder.com/data/icons/evil-icons-user-interface/64/question-128.png" vertex="1" parent="2ZF47CXnTHHWyCRd5WbP-37">
          <mxGeometry x="175" width="40" height="40" as="geometry" />
        </mxCell>
        <mxCell id="2ZF47CXnTHHWyCRd5WbP-40" value="Você treinou o que?" style="text;html=1;strokeColor=none;fillColor=none;align=left;verticalAlign=middle;whiteSpace=wrap;rounded=0;fontSize=20;" vertex="1" parent="2ZF47CXnTHHWyCRd5WbP-37">
          <mxGeometry x="7.5" y="10" width="200" height="60" as="geometry" />
        </mxCell>
        <mxCell id="2ZF47CXnTHHWyCRd5WbP-41" style="edgeStyle=orthogonalEdgeStyle;rounded=0;orthogonalLoop=1;jettySize=auto;html=1;entryX=0.5;entryY=0;entryDx=0;entryDy=0;" edge="1" parent="1" source="2ZF47CXnTHHWyCRd5WbP-33" target="2ZF47CXnTHHWyCRd5WbP-38">
          <mxGeometry relative="1" as="geometry" />
        </mxCell>
        <mxCell id="2ZF47CXnTHHWyCRd5WbP-44" value="" style="group;fontSize=17;" vertex="1" connectable="0" parent="1">
          <mxGeometry x="170" y="280" width="121" height="30" as="geometry" />
        </mxCell>
        <mxCell id="2ZF47CXnTHHWyCRd5WbP-45" value="" style="rounded=0;whiteSpace=wrap;html=1;" vertex="1" parent="2ZF47CXnTHHWyCRd5WbP-44">
          <mxGeometry width="121" height="30" as="geometry" />
        </mxCell>
        <mxCell id="2ZF47CXnTHHWyCRd5WbP-47" value="PEITO" style="text;html=1;strokeColor=none;fillColor=none;align=center;verticalAlign=middle;whiteSpace=wrap;rounded=0;fontSize=20;" vertex="1" parent="2ZF47CXnTHHWyCRd5WbP-44">
          <mxGeometry x="4.220930232558139" y="3.75" width="112.55813953488372" height="22.5" as="geometry" />
        </mxCell>
        <mxCell id="2ZF47CXnTHHWyCRd5WbP-48" value="" style="group;fontSize=17;" vertex="1" connectable="0" parent="1">
          <mxGeometry x="320" y="280" width="121" height="30" as="geometry" />
        </mxCell>
        <mxCell id="2ZF47CXnTHHWyCRd5WbP-49" value="" style="rounded=0;whiteSpace=wrap;html=1;" vertex="1" parent="2ZF47CXnTHHWyCRd5WbP-48">
          <mxGeometry width="121" height="30" as="geometry" />
        </mxCell>
        <mxCell id="2ZF47CXnTHHWyCRd5WbP-50" value="COSTAS" style="text;html=1;strokeColor=none;fillColor=none;align=center;verticalAlign=middle;whiteSpace=wrap;rounded=0;fontSize=20;" vertex="1" parent="2ZF47CXnTHHWyCRd5WbP-48">
          <mxGeometry x="4.220930232558139" y="3.75" width="112.55813953488372" height="22.5" as="geometry" />
        </mxCell>
        <mxCell id="2ZF47CXnTHHWyCRd5WbP-51" value="" style="group;fontSize=17;" vertex="1" connectable="0" parent="1">
          <mxGeometry x="470" y="280" width="121" height="30" as="geometry" />
        </mxCell>
        <mxCell id="2ZF47CXnTHHWyCRd5WbP-52" value="" style="rounded=0;whiteSpace=wrap;html=1;" vertex="1" parent="2ZF47CXnTHHWyCRd5WbP-51">
          <mxGeometry width="121" height="30" as="geometry" />
        </mxCell>
        <mxCell id="2ZF47CXnTHHWyCRd5WbP-53" value="PERNAS" style="text;html=1;strokeColor=none;fillColor=none;align=center;verticalAlign=middle;whiteSpace=wrap;rounded=0;fontSize=20;" vertex="1" parent="2ZF47CXnTHHWyCRd5WbP-51">
          <mxGeometry x="4.220930232558139" y="3.75" width="112.55813953488372" height="22.5" as="geometry" />
        </mxCell>
        <mxCell id="2ZF47CXnTHHWyCRd5WbP-54" value="" style="group;fontSize=17;" vertex="1" connectable="0" parent="1">
          <mxGeometry x="620" y="280" width="121" height="30" as="geometry" />
        </mxCell>
        <mxCell id="2ZF47CXnTHHWyCRd5WbP-55" value="" style="rounded=0;whiteSpace=wrap;html=1;" vertex="1" parent="2ZF47CXnTHHWyCRd5WbP-54">
          <mxGeometry width="121" height="30" as="geometry" />
        </mxCell>
        <mxCell id="2ZF47CXnTHHWyCRd5WbP-56" value="BRAÇOS" style="text;html=1;strokeColor=none;fillColor=none;align=center;verticalAlign=middle;whiteSpace=wrap;rounded=0;fontSize=20;" vertex="1" parent="2ZF47CXnTHHWyCRd5WbP-54">
          <mxGeometry x="4.220930232558139" y="3.75" width="112.55813953488372" height="22.5" as="geometry" />
        </mxCell>
        <mxCell id="2ZF47CXnTHHWyCRd5WbP-57" style="edgeStyle=orthogonalEdgeStyle;rounded=0;orthogonalLoop=1;jettySize=auto;html=1;entryX=0.75;entryY=0;entryDx=0;entryDy=0;" edge="1" parent="1" source="2ZF47CXnTHHWyCRd5WbP-40" target="2ZF47CXnTHHWyCRd5WbP-45">
          <mxGeometry relative="1" as="geometry" />
        </mxCell>
        <mxCell id="2ZF47CXnTHHWyCRd5WbP-58" style="edgeStyle=orthogonalEdgeStyle;rounded=0;orthogonalLoop=1;jettySize=auto;html=1;entryX=0.75;entryY=0;entryDx=0;entryDy=0;" edge="1" parent="1" source="2ZF47CXnTHHWyCRd5WbP-40" target="2ZF47CXnTHHWyCRd5WbP-49">
          <mxGeometry relative="1" as="geometry" />
        </mxCell>
        <mxCell id="2ZF47CXnTHHWyCRd5WbP-59" style="edgeStyle=orthogonalEdgeStyle;rounded=0;orthogonalLoop=1;jettySize=auto;html=1;entryX=0.403;entryY=-0.047;entryDx=0;entryDy=0;entryPerimeter=0;" edge="1" parent="1" source="2ZF47CXnTHHWyCRd5WbP-40" target="2ZF47CXnTHHWyCRd5WbP-52">
          <mxGeometry relative="1" as="geometry" />
        </mxCell>
        <mxCell id="2ZF47CXnTHHWyCRd5WbP-60" style="edgeStyle=orthogonalEdgeStyle;rounded=0;orthogonalLoop=1;jettySize=auto;html=1;entryX=0.634;entryY=-0.016;entryDx=0;entryDy=0;entryPerimeter=0;" edge="1" parent="1" source="2ZF47CXnTHHWyCRd5WbP-40" target="2ZF47CXnTHHWyCRd5WbP-56">
          <mxGeometry relative="1" as="geometry" />
        </mxCell>
        <mxCell id="2ZF47CXnTHHWyCRd5WbP-61" value="" style="group;fontSize=17;" vertex="1" connectable="0" parent="1">
          <mxGeometry x="360" y="340" width="215" height="80" as="geometry" />
        </mxCell>
        <mxCell id="2ZF47CXnTHHWyCRd5WbP-62" value="" style="rounded=0;whiteSpace=wrap;html=1;" vertex="1" parent="2ZF47CXnTHHWyCRd5WbP-61">
          <mxGeometry width="215" height="80" as="geometry" />
        </mxCell>
        <mxCell id="2ZF47CXnTHHWyCRd5WbP-63" value="" style="shape=image;html=1;verticalAlign=top;verticalLabelPosition=bottom;labelBackgroundColor=#ffffff;imageAspect=0;aspect=fixed;image=https://cdn4.iconfinder.com/data/icons/evil-icons-user-interface/64/question-128.png" vertex="1" parent="2ZF47CXnTHHWyCRd5WbP-61">
          <mxGeometry x="175" width="40" height="40" as="geometry" />
        </mxCell>
        <mxCell id="2ZF47CXnTHHWyCRd5WbP-64" value="Quantos exercícios você fez?" style="text;html=1;strokeColor=none;fillColor=none;align=left;verticalAlign=middle;whiteSpace=wrap;rounded=0;fontSize=20;" vertex="1" parent="2ZF47CXnTHHWyCRd5WbP-61">
          <mxGeometry x="7.5" y="10" width="200" height="60" as="geometry" />
        </mxCell>
        <mxCell id="2ZF47CXnTHHWyCRd5WbP-65" style="edgeStyle=orthogonalEdgeStyle;rounded=0;orthogonalLoop=1;jettySize=auto;html=1;entryX=0;entryY=0.75;entryDx=0;entryDy=0;" edge="1" parent="1" source="2ZF47CXnTHHWyCRd5WbP-47" target="2ZF47CXnTHHWyCRd5WbP-62">
          <mxGeometry relative="1" as="geometry">
            <Array as="points">
              <mxPoint x="231" y="370" />
              <mxPoint x="323" y="370" />
              <mxPoint x="323" y="400" />
            </Array>
          </mxGeometry>
        </mxCell>
        <mxCell id="2ZF47CXnTHHWyCRd5WbP-66" style="edgeStyle=orthogonalEdgeStyle;rounded=0;orthogonalLoop=1;jettySize=auto;html=1;entryX=0.117;entryY=-0.008;entryDx=0;entryDy=0;entryPerimeter=0;" edge="1" parent="1" source="2ZF47CXnTHHWyCRd5WbP-50" target="2ZF47CXnTHHWyCRd5WbP-62">
          <mxGeometry relative="1" as="geometry" />
        </mxCell>
        <mxCell id="2ZF47CXnTHHWyCRd5WbP-67" style="edgeStyle=orthogonalEdgeStyle;rounded=0;orthogonalLoop=1;jettySize=auto;html=1;entryX=0.791;entryY=0.022;entryDx=0;entryDy=0;entryPerimeter=0;" edge="1" parent="1" source="2ZF47CXnTHHWyCRd5WbP-53" target="2ZF47CXnTHHWyCRd5WbP-62">
          <mxGeometry relative="1" as="geometry" />
        </mxCell>
        <mxCell id="2ZF47CXnTHHWyCRd5WbP-68" style="edgeStyle=orthogonalEdgeStyle;rounded=0;orthogonalLoop=1;jettySize=auto;html=1;entryX=1.016;entryY=0.637;entryDx=0;entryDy=0;entryPerimeter=0;" edge="1" parent="1" source="2ZF47CXnTHHWyCRd5WbP-56" target="2ZF47CXnTHHWyCRd5WbP-64">
          <mxGeometry relative="1" as="geometry">
            <Array as="points">
              <mxPoint x="681" y="370" />
              <mxPoint x="580" y="370" />
              <mxPoint x="580" y="388" />
            </Array>
          </mxGeometry>
        </mxCell>
        <mxCell id="2ZF47CXnTHHWyCRd5WbP-69" value="" style="group" vertex="1" connectable="0" parent="1">
          <mxGeometry x="310" y="440" width="50" height="50" as="geometry" />
        </mxCell>
        <mxCell id="2ZF47CXnTHHWyCRd5WbP-70" value="" style="whiteSpace=wrap;html=1;aspect=fixed;" vertex="1" parent="2ZF47CXnTHHWyCRd5WbP-69">
          <mxGeometry width="50" height="50" as="geometry" />
        </mxCell>
        <mxCell id="2ZF47CXnTHHWyCRd5WbP-71" value="1" style="text;html=1;strokeColor=none;fillColor=none;align=center;verticalAlign=middle;whiteSpace=wrap;rounded=0;fontSize=18;" vertex="1" parent="2ZF47CXnTHHWyCRd5WbP-69">
          <mxGeometry x="6.25" y="15.625" width="37.5" height="18.75" as="geometry" />
        </mxCell>
        <mxCell id="2ZF47CXnTHHWyCRd5WbP-76" value="" style="group" vertex="1" connectable="0" parent="1">
          <mxGeometry x="380" y="450" width="50" height="50" as="geometry" />
        </mxCell>
        <mxCell id="2ZF47CXnTHHWyCRd5WbP-77" value="" style="whiteSpace=wrap;html=1;aspect=fixed;" vertex="1" parent="2ZF47CXnTHHWyCRd5WbP-76">
          <mxGeometry width="50" height="50" as="geometry" />
        </mxCell>
        <mxCell id="2ZF47CXnTHHWyCRd5WbP-78" value="2" style="text;html=1;strokeColor=none;fillColor=none;align=center;verticalAlign=middle;whiteSpace=wrap;rounded=0;fontSize=18;" vertex="1" parent="2ZF47CXnTHHWyCRd5WbP-76">
          <mxGeometry x="6.25" y="15.625" width="37.5" height="18.75" as="geometry" />
        </mxCell>
        <mxCell id="2ZF47CXnTHHWyCRd5WbP-80" value="" style="group" vertex="1" connectable="0" parent="1">
          <mxGeometry x="450" y="450" width="50" height="50" as="geometry" />
        </mxCell>
        <mxCell id="2ZF47CXnTHHWyCRd5WbP-124" style="edgeStyle=orthogonalEdgeStyle;rounded=0;orthogonalLoop=1;jettySize=auto;html=1;" edge="1" parent="2ZF47CXnTHHWyCRd5WbP-80" source="2ZF47CXnTHHWyCRd5WbP-81">
          <mxGeometry relative="1" as="geometry">
            <mxPoint x="20" y="90" as="targetPoint" />
          </mxGeometry>
        </mxCell>
        <mxCell id="2ZF47CXnTHHWyCRd5WbP-81" value="" style="whiteSpace=wrap;html=1;aspect=fixed;" vertex="1" parent="2ZF47CXnTHHWyCRd5WbP-80">
          <mxGeometry width="50" height="50" as="geometry" />
        </mxCell>
        <mxCell id="2ZF47CXnTHHWyCRd5WbP-82" value="3" style="text;html=1;strokeColor=none;fillColor=none;align=center;verticalAlign=middle;whiteSpace=wrap;rounded=0;fontSize=18;" vertex="1" parent="2ZF47CXnTHHWyCRd5WbP-80">
          <mxGeometry x="6.25" y="15.625" width="37.5" height="18.75" as="geometry" />
        </mxCell>
        <mxCell id="2ZF47CXnTHHWyCRd5WbP-83" value="" style="group" vertex="1" connectable="0" parent="1">
          <mxGeometry x="520" y="440" width="50" height="50" as="geometry" />
        </mxCell>
        <mxCell id="2ZF47CXnTHHWyCRd5WbP-125" style="edgeStyle=orthogonalEdgeStyle;rounded=0;orthogonalLoop=1;jettySize=auto;html=1;" edge="1" parent="2ZF47CXnTHHWyCRd5WbP-83" source="2ZF47CXnTHHWyCRd5WbP-84">
          <mxGeometry relative="1" as="geometry">
            <mxPoint x="20" y="100" as="targetPoint" />
          </mxGeometry>
        </mxCell>
        <mxCell id="2ZF47CXnTHHWyCRd5WbP-84" value="" style="whiteSpace=wrap;html=1;aspect=fixed;" vertex="1" parent="2ZF47CXnTHHWyCRd5WbP-83">
          <mxGeometry width="50" height="50" as="geometry" />
        </mxCell>
        <mxCell id="2ZF47CXnTHHWyCRd5WbP-85" value="4" style="text;html=1;strokeColor=none;fillColor=none;align=center;verticalAlign=middle;whiteSpace=wrap;rounded=0;fontSize=18;" vertex="1" parent="2ZF47CXnTHHWyCRd5WbP-83">
          <mxGeometry x="6.25" y="15.625" width="37.5" height="18.75" as="geometry" />
        </mxCell>
        <mxCell id="2ZF47CXnTHHWyCRd5WbP-89" value="" style="group" vertex="1" connectable="0" parent="1">
          <mxGeometry x="590" y="440" width="50" height="50" as="geometry" />
        </mxCell>
        <mxCell id="2ZF47CXnTHHWyCRd5WbP-90" value="" style="whiteSpace=wrap;html=1;aspect=fixed;" vertex="1" parent="2ZF47CXnTHHWyCRd5WbP-89">
          <mxGeometry width="50" height="50" as="geometry" />
        </mxCell>
        <mxCell id="2ZF47CXnTHHWyCRd5WbP-91" value="5" style="text;html=1;strokeColor=none;fillColor=none;align=center;verticalAlign=middle;whiteSpace=wrap;rounded=0;fontSize=18;" vertex="1" parent="2ZF47CXnTHHWyCRd5WbP-89">
          <mxGeometry x="6.25" y="15.625" width="37.5" height="18.75" as="geometry" />
        </mxCell>
        <mxCell id="2ZF47CXnTHHWyCRd5WbP-92" style="edgeStyle=orthogonalEdgeStyle;rounded=0;orthogonalLoop=1;jettySize=auto;html=1;entryX=0.75;entryY=0;entryDx=0;entryDy=0;" edge="1" parent="1" target="2ZF47CXnTHHWyCRd5WbP-71">
          <mxGeometry relative="1" as="geometry">
            <mxPoint x="420" y="420" as="sourcePoint" />
            <Array as="points">
              <mxPoint x="468" y="420" />
              <mxPoint x="344" y="420" />
            </Array>
          </mxGeometry>
        </mxCell>
        <mxCell id="2ZF47CXnTHHWyCRd5WbP-94" style="edgeStyle=orthogonalEdgeStyle;rounded=0;orthogonalLoop=1;jettySize=auto;html=1;" edge="1" parent="1" source="2ZF47CXnTHHWyCRd5WbP-62" target="2ZF47CXnTHHWyCRd5WbP-77">
          <mxGeometry relative="1" as="geometry">
            <Array as="points">
              <mxPoint x="420" y="440" />
              <mxPoint x="405" y="440" />
            </Array>
          </mxGeometry>
        </mxCell>
        <mxCell id="2ZF47CXnTHHWyCRd5WbP-96" style="edgeStyle=orthogonalEdgeStyle;rounded=0;orthogonalLoop=1;jettySize=auto;html=1;entryX=0.8;entryY=0.2;entryDx=0;entryDy=0;entryPerimeter=0;" edge="1" parent="1" target="2ZF47CXnTHHWyCRd5WbP-81">
          <mxGeometry relative="1" as="geometry">
            <mxPoint x="510" y="420" as="sourcePoint" />
            <Array as="points">
              <mxPoint x="490" y="420" />
            </Array>
          </mxGeometry>
        </mxCell>
        <mxCell id="2ZF47CXnTHHWyCRd5WbP-97" style="edgeStyle=orthogonalEdgeStyle;rounded=0;orthogonalLoop=1;jettySize=auto;html=1;entryX=0.5;entryY=0;entryDx=0;entryDy=0;" edge="1" parent="1" source="2ZF47CXnTHHWyCRd5WbP-62" target="2ZF47CXnTHHWyCRd5WbP-84">
          <mxGeometry relative="1" as="geometry">
            <Array as="points">
              <mxPoint x="540" y="440" />
            </Array>
          </mxGeometry>
        </mxCell>
        <mxCell id="2ZF47CXnTHHWyCRd5WbP-98" style="edgeStyle=orthogonalEdgeStyle;rounded=0;orthogonalLoop=1;jettySize=auto;html=1;" edge="1" parent="1" source="2ZF47CXnTHHWyCRd5WbP-62" target="2ZF47CXnTHHWyCRd5WbP-90">
          <mxGeometry relative="1" as="geometry">
            <Array as="points">
              <mxPoint x="615" y="410" />
            </Array>
          </mxGeometry>
        </mxCell>
        <mxCell id="2ZF47CXnTHHWyCRd5WbP-99" value="" style="group;fontSize=17;" vertex="1" connectable="0" parent="1">
          <mxGeometry x="370" y="545" width="215" height="80" as="geometry" />
        </mxCell>
        <mxCell id="2ZF47CXnTHHWyCRd5WbP-100" value="" style="rounded=0;whiteSpace=wrap;html=1;" vertex="1" parent="2ZF47CXnTHHWyCRd5WbP-99">
          <mxGeometry width="215" height="80" as="geometry" />
        </mxCell>
        <mxCell id="2ZF47CXnTHHWyCRd5WbP-101" value="" style="shape=image;html=1;verticalAlign=top;verticalLabelPosition=bottom;labelBackgroundColor=#ffffff;imageAspect=0;aspect=fixed;image=https://cdn4.iconfinder.com/data/icons/evil-icons-user-interface/64/question-128.png" vertex="1" parent="2ZF47CXnTHHWyCRd5WbP-99">
          <mxGeometry x="175" width="40" height="40" as="geometry" />
        </mxCell>
        <mxCell id="2ZF47CXnTHHWyCRd5WbP-102" value="Quantas séries x repetições?" style="text;html=1;strokeColor=none;fillColor=none;align=left;verticalAlign=middle;whiteSpace=wrap;rounded=0;fontSize=20;" vertex="1" parent="2ZF47CXnTHHWyCRd5WbP-99">
          <mxGeometry x="7.5" y="10" width="200" height="60" as="geometry" />
        </mxCell>
        <mxCell id="2ZF47CXnTHHWyCRd5WbP-108" value="" style="group" vertex="1" connectable="0" parent="1">
          <mxGeometry x="310" y="640" width="70" height="70" as="geometry" />
        </mxCell>
        <mxCell id="2ZF47CXnTHHWyCRd5WbP-112" value="" style="group" vertex="1" connectable="0" parent="2ZF47CXnTHHWyCRd5WbP-108">
          <mxGeometry width="60" height="60" as="geometry" />
        </mxCell>
        <mxCell id="2ZF47CXnTHHWyCRd5WbP-109" value="" style="whiteSpace=wrap;html=1;aspect=fixed;" vertex="1" parent="2ZF47CXnTHHWyCRd5WbP-112">
          <mxGeometry width="60" height="60" as="geometry" />
        </mxCell>
        <mxCell id="2ZF47CXnTHHWyCRd5WbP-110" value="4 x 10" style="text;html=1;strokeColor=none;fillColor=none;align=center;verticalAlign=middle;whiteSpace=wrap;rounded=0;fontSize=18;" vertex="1" parent="2ZF47CXnTHHWyCRd5WbP-112">
          <mxGeometry x="3.13" y="20.62" width="53.75" height="18.75" as="geometry" />
        </mxCell>
        <mxCell id="2ZF47CXnTHHWyCRd5WbP-113" value="" style="group" vertex="1" connectable="0" parent="1">
          <mxGeometry x="400" y="640" width="60" height="60" as="geometry" />
        </mxCell>
        <mxCell id="2ZF47CXnTHHWyCRd5WbP-114" value="" style="whiteSpace=wrap;html=1;aspect=fixed;" vertex="1" parent="2ZF47CXnTHHWyCRd5WbP-113">
          <mxGeometry width="60" height="60" as="geometry" />
        </mxCell>
        <mxCell id="2ZF47CXnTHHWyCRd5WbP-115" value="3 x 15" style="text;html=1;strokeColor=none;fillColor=none;align=center;verticalAlign=middle;whiteSpace=wrap;rounded=0;fontSize=18;" vertex="1" parent="2ZF47CXnTHHWyCRd5WbP-113">
          <mxGeometry x="3.13" y="20.62" width="53.75" height="18.75" as="geometry" />
        </mxCell>
        <mxCell id="2ZF47CXnTHHWyCRd5WbP-116" value="" style="group" vertex="1" connectable="0" parent="1">
          <mxGeometry x="490" y="640" width="60" height="60" as="geometry" />
        </mxCell>
        <mxCell id="2ZF47CXnTHHWyCRd5WbP-117" value="" style="whiteSpace=wrap;html=1;aspect=fixed;" vertex="1" parent="2ZF47CXnTHHWyCRd5WbP-116">
          <mxGeometry width="60" height="60" as="geometry" />
        </mxCell>
        <mxCell id="2ZF47CXnTHHWyCRd5WbP-118" value="5 x 10" style="text;html=1;strokeColor=none;fillColor=none;align=center;verticalAlign=middle;whiteSpace=wrap;rounded=0;fontSize=18;" vertex="1" parent="2ZF47CXnTHHWyCRd5WbP-116">
          <mxGeometry x="3.13" y="20.62" width="53.75" height="18.75" as="geometry" />
        </mxCell>
        <mxCell id="2ZF47CXnTHHWyCRd5WbP-119" value="" style="group" vertex="1" connectable="0" parent="1">
          <mxGeometry x="580" y="640" width="60" height="60" as="geometry" />
        </mxCell>
        <mxCell id="2ZF47CXnTHHWyCRd5WbP-120" value="" style="whiteSpace=wrap;html=1;aspect=fixed;" vertex="1" parent="2ZF47CXnTHHWyCRd5WbP-119">
          <mxGeometry width="60" height="60" as="geometry" />
        </mxCell>
        <mxCell id="2ZF47CXnTHHWyCRd5WbP-121" value="4 x 15" style="text;html=1;strokeColor=none;fillColor=none;align=center;verticalAlign=middle;whiteSpace=wrap;rounded=0;fontSize=18;" vertex="1" parent="2ZF47CXnTHHWyCRd5WbP-119">
          <mxGeometry x="3.13" y="20.62" width="53.75" height="18.75" as="geometry" />
        </mxCell>
        <mxCell id="2ZF47CXnTHHWyCRd5WbP-122" style="edgeStyle=orthogonalEdgeStyle;rounded=0;orthogonalLoop=1;jettySize=auto;html=1;entryX=0;entryY=0.25;entryDx=0;entryDy=0;" edge="1" parent="1" source="2ZF47CXnTHHWyCRd5WbP-70" target="2ZF47CXnTHHWyCRd5WbP-100">
          <mxGeometry relative="1" as="geometry">
            <Array as="points">
              <mxPoint x="330" y="518" />
              <mxPoint x="350" y="518" />
              <mxPoint x="350" y="565" />
            </Array>
          </mxGeometry>
        </mxCell>
        <mxCell id="2ZF47CXnTHHWyCRd5WbP-123" style="edgeStyle=orthogonalEdgeStyle;rounded=0;orthogonalLoop=1;jettySize=auto;html=1;entryX=0.153;entryY=-0.025;entryDx=0;entryDy=0;entryPerimeter=0;" edge="1" parent="1" source="2ZF47CXnTHHWyCRd5WbP-77" target="2ZF47CXnTHHWyCRd5WbP-100">
          <mxGeometry relative="1" as="geometry" />
        </mxCell>
        <mxCell id="2ZF47CXnTHHWyCRd5WbP-126" style="edgeStyle=orthogonalEdgeStyle;rounded=0;orthogonalLoop=1;jettySize=auto;html=1;entryX=1.014;entryY=0.144;entryDx=0;entryDy=0;entryPerimeter=0;" edge="1" parent="1" source="2ZF47CXnTHHWyCRd5WbP-90" target="2ZF47CXnTHHWyCRd5WbP-102">
          <mxGeometry relative="1" as="geometry">
            <Array as="points">
              <mxPoint x="615" y="510" />
              <mxPoint x="600" y="510" />
              <mxPoint x="600" y="540" />
              <mxPoint x="580" y="540" />
            </Array>
          </mxGeometry>
        </mxCell>
        <mxCell id="2ZF47CXnTHHWyCRd5WbP-127" style="edgeStyle=orthogonalEdgeStyle;rounded=0;orthogonalLoop=1;jettySize=auto;html=1;entryX=0.5;entryY=0;entryDx=0;entryDy=0;" edge="1" parent="1" source="2ZF47CXnTHHWyCRd5WbP-102" target="2ZF47CXnTHHWyCRd5WbP-109">
          <mxGeometry relative="1" as="geometry" />
        </mxCell>
        <mxCell id="2ZF47CXnTHHWyCRd5WbP-128" style="edgeStyle=orthogonalEdgeStyle;rounded=0;orthogonalLoop=1;jettySize=auto;html=1;" edge="1" parent="1" source="2ZF47CXnTHHWyCRd5WbP-100" target="2ZF47CXnTHHWyCRd5WbP-114">
          <mxGeometry relative="1" as="geometry">
            <Array as="points">
              <mxPoint x="440" y="630" />
              <mxPoint x="440" y="630" />
            </Array>
          </mxGeometry>
        </mxCell>
        <mxCell id="2ZF47CXnTHHWyCRd5WbP-129" style="edgeStyle=orthogonalEdgeStyle;rounded=0;orthogonalLoop=1;jettySize=auto;html=1;entryX=0.5;entryY=0;entryDx=0;entryDy=0;" edge="1" parent="1" source="2ZF47CXnTHHWyCRd5WbP-100" target="2ZF47CXnTHHWyCRd5WbP-117">
          <mxGeometry relative="1" as="geometry">
            <Array as="points">
              <mxPoint x="520" y="630" />
              <mxPoint x="520" y="630" />
            </Array>
          </mxGeometry>
        </mxCell>
        <mxCell id="2ZF47CXnTHHWyCRd5WbP-130" style="edgeStyle=orthogonalEdgeStyle;rounded=0;orthogonalLoop=1;jettySize=auto;html=1;entryX=0.5;entryY=0;entryDx=0;entryDy=0;" edge="1" parent="1" source="2ZF47CXnTHHWyCRd5WbP-102" target="2ZF47CXnTHHWyCRd5WbP-120">
          <mxGeometry relative="1" as="geometry" />
        </mxCell>
        <mxCell id="2ZF47CXnTHHWyCRd5WbP-132" value="" style="group;fontSize=17;" vertex="1" connectable="0" parent="1">
          <mxGeometry x="370" y="730" width="215" height="80" as="geometry" />
        </mxCell>
        <mxCell id="2ZF47CXnTHHWyCRd5WbP-133" value="" style="rounded=0;whiteSpace=wrap;html=1;" vertex="1" parent="2ZF47CXnTHHWyCRd5WbP-132">
          <mxGeometry width="215" height="80" as="geometry" />
        </mxCell>
        <mxCell id="2ZF47CXnTHHWyCRd5WbP-134" value="" style="shape=image;html=1;verticalAlign=top;verticalLabelPosition=bottom;labelBackgroundColor=#ffffff;imageAspect=0;aspect=fixed;image=https://cdn4.iconfinder.com/data/icons/evil-icons-user-interface/64/question-128.png" vertex="1" parent="2ZF47CXnTHHWyCRd5WbP-132">
          <mxGeometry x="175" width="40" height="40" as="geometry" />
        </mxCell>
        <mxCell id="2ZF47CXnTHHWyCRd5WbP-135" value="Com quantos kgs?" style="text;html=1;strokeColor=none;fillColor=none;align=left;verticalAlign=middle;whiteSpace=wrap;rounded=0;fontSize=20;" vertex="1" parent="2ZF47CXnTHHWyCRd5WbP-132">
          <mxGeometry x="7.5" y="10" width="200" height="60" as="geometry" />
        </mxCell>
        <mxCell id="2ZF47CXnTHHWyCRd5WbP-137" style="edgeStyle=orthogonalEdgeStyle;rounded=0;orthogonalLoop=1;jettySize=auto;html=1;entryX=0;entryY=0.5;entryDx=0;entryDy=0;" edge="1" parent="1" source="2ZF47CXnTHHWyCRd5WbP-109" target="2ZF47CXnTHHWyCRd5WbP-133">
          <mxGeometry relative="1" as="geometry" />
        </mxCell>
        <mxCell id="2ZF47CXnTHHWyCRd5WbP-138" style="edgeStyle=orthogonalEdgeStyle;rounded=0;orthogonalLoop=1;jettySize=auto;html=1;entryX=0.25;entryY=0;entryDx=0;entryDy=0;" edge="1" parent="1" source="2ZF47CXnTHHWyCRd5WbP-114" target="2ZF47CXnTHHWyCRd5WbP-133">
          <mxGeometry relative="1" as="geometry" />
        </mxCell>
        <mxCell id="2ZF47CXnTHHWyCRd5WbP-139" style="edgeStyle=orthogonalEdgeStyle;rounded=0;orthogonalLoop=1;jettySize=auto;html=1;entryX=0.698;entryY=0;entryDx=0;entryDy=0;entryPerimeter=0;" edge="1" parent="1" source="2ZF47CXnTHHWyCRd5WbP-117" target="2ZF47CXnTHHWyCRd5WbP-133">
          <mxGeometry relative="1" as="geometry" />
        </mxCell>
        <mxCell id="2ZF47CXnTHHWyCRd5WbP-140" style="edgeStyle=orthogonalEdgeStyle;rounded=0;orthogonalLoop=1;jettySize=auto;html=1;entryX=1;entryY=0.5;entryDx=0;entryDy=0;" edge="1" parent="1" source="2ZF47CXnTHHWyCRd5WbP-121" target="2ZF47CXnTHHWyCRd5WbP-135">
          <mxGeometry relative="1" as="geometry">
            <Array as="points">
              <mxPoint x="610" y="750" />
              <mxPoint x="597" y="750" />
              <mxPoint x="597" y="770" />
            </Array>
          </mxGeometry>
        </mxCell>
        <mxCell id="2ZF47CXnTHHWyCRd5WbP-141" value="" style="group" vertex="1" connectable="0" parent="1">
          <mxGeometry x="320" y="840" width="50" height="50" as="geometry" />
        </mxCell>
        <mxCell id="2ZF47CXnTHHWyCRd5WbP-142" value="" style="whiteSpace=wrap;html=1;aspect=fixed;" vertex="1" parent="2ZF47CXnTHHWyCRd5WbP-141">
          <mxGeometry width="50" height="50" as="geometry" />
        </mxCell>
        <mxCell id="2ZF47CXnTHHWyCRd5WbP-143" value="20" style="text;html=1;strokeColor=none;fillColor=none;align=center;verticalAlign=middle;whiteSpace=wrap;rounded=0;fontSize=18;" vertex="1" parent="2ZF47CXnTHHWyCRd5WbP-141">
          <mxGeometry x="6.25" y="15.625" width="37.5" height="18.75" as="geometry" />
        </mxCell>
        <mxCell id="2ZF47CXnTHHWyCRd5WbP-147" value="" style="group" vertex="1" connectable="0" parent="1">
          <mxGeometry x="389" y="840" width="50" height="50" as="geometry" />
        </mxCell>
        <mxCell id="2ZF47CXnTHHWyCRd5WbP-148" value="" style="whiteSpace=wrap;html=1;aspect=fixed;" vertex="1" parent="2ZF47CXnTHHWyCRd5WbP-147">
          <mxGeometry width="50" height="50" as="geometry" />
        </mxCell>
        <mxCell id="2ZF47CXnTHHWyCRd5WbP-149" value="40" style="text;html=1;strokeColor=none;fillColor=none;align=center;verticalAlign=middle;whiteSpace=wrap;rounded=0;fontSize=18;" vertex="1" parent="2ZF47CXnTHHWyCRd5WbP-147">
          <mxGeometry x="6.25" y="15.625" width="37.5" height="18.75" as="geometry" />
        </mxCell>
        <mxCell id="2ZF47CXnTHHWyCRd5WbP-150" value="" style="group" vertex="1" connectable="0" parent="1">
          <mxGeometry x="460" y="840" width="50" height="50" as="geometry" />
        </mxCell>
        <mxCell id="2ZF47CXnTHHWyCRd5WbP-151" value="" style="whiteSpace=wrap;html=1;aspect=fixed;" vertex="1" parent="2ZF47CXnTHHWyCRd5WbP-150">
          <mxGeometry width="50" height="50" as="geometry" />
        </mxCell>
        <mxCell id="2ZF47CXnTHHWyCRd5WbP-152" value="50" style="text;html=1;strokeColor=none;fillColor=none;align=center;verticalAlign=middle;whiteSpace=wrap;rounded=0;fontSize=18;" vertex="1" parent="2ZF47CXnTHHWyCRd5WbP-150">
          <mxGeometry x="6.25" y="15.625" width="37.5" height="18.75" as="geometry" />
        </mxCell>
        <mxCell id="2ZF47CXnTHHWyCRd5WbP-153" value="" style="group" vertex="1" connectable="0" parent="1">
          <mxGeometry x="540" y="840" width="50" height="50" as="geometry" />
        </mxCell>
        <mxCell id="2ZF47CXnTHHWyCRd5WbP-154" value="" style="whiteSpace=wrap;html=1;aspect=fixed;" vertex="1" parent="2ZF47CXnTHHWyCRd5WbP-153">
          <mxGeometry width="50" height="50" as="geometry" />
        </mxCell>
        <mxCell id="2ZF47CXnTHHWyCRd5WbP-155" value="100" style="text;html=1;strokeColor=none;fillColor=none;align=center;verticalAlign=middle;whiteSpace=wrap;rounded=0;fontSize=18;" vertex="1" parent="2ZF47CXnTHHWyCRd5WbP-153">
          <mxGeometry x="6.25" y="15.625" width="37.5" height="18.75" as="geometry" />
        </mxCell>
        <mxCell id="2ZF47CXnTHHWyCRd5WbP-156" style="edgeStyle=orthogonalEdgeStyle;rounded=0;orthogonalLoop=1;jettySize=auto;html=1;entryX=0.5;entryY=0;entryDx=0;entryDy=0;" edge="1" parent="1" source="2ZF47CXnTHHWyCRd5WbP-135" target="2ZF47CXnTHHWyCRd5WbP-142">
          <mxGeometry relative="1" as="geometry">
            <Array as="points">
              <mxPoint x="345" y="790" />
            </Array>
          </mxGeometry>
        </mxCell>
        <mxCell id="2ZF47CXnTHHWyCRd5WbP-157" style="edgeStyle=orthogonalEdgeStyle;rounded=0;orthogonalLoop=1;jettySize=auto;html=1;" edge="1" parent="1" source="2ZF47CXnTHHWyCRd5WbP-135" target="2ZF47CXnTHHWyCRd5WbP-148">
          <mxGeometry relative="1" as="geometry">
            <Array as="points">
              <mxPoint x="430" y="820" />
              <mxPoint x="414" y="820" />
            </Array>
          </mxGeometry>
        </mxCell>
        <mxCell id="2ZF47CXnTHHWyCRd5WbP-158" style="edgeStyle=orthogonalEdgeStyle;rounded=0;orthogonalLoop=1;jettySize=auto;html=1;" edge="1" parent="1" source="2ZF47CXnTHHWyCRd5WbP-135" target="2ZF47CXnTHHWyCRd5WbP-151">
          <mxGeometry relative="1" as="geometry" />
        </mxCell>
        <mxCell id="2ZF47CXnTHHWyCRd5WbP-159" style="edgeStyle=orthogonalEdgeStyle;rounded=0;orthogonalLoop=1;jettySize=auto;html=1;entryX=1;entryY=0;entryDx=0;entryDy=0;" edge="1" parent="1" source="2ZF47CXnTHHWyCRd5WbP-135" target="2ZF47CXnTHHWyCRd5WbP-155">
          <mxGeometry relative="1" as="geometry">
            <Array as="points">
              <mxPoint x="478" y="810" />
              <mxPoint x="584" y="810" />
            </Array>
          </mxGeometry>
        </mxCell>
        <mxCell id="2ZF47CXnTHHWyCRd5WbP-160" value="" style="group;fontSize=15;" vertex="1" connectable="0" parent="1">
          <mxGeometry x="335" y="930" width="215" height="80" as="geometry" />
        </mxCell>
        <mxCell id="2ZF47CXnTHHWyCRd5WbP-161" value="" style="rounded=0;whiteSpace=wrap;html=1;" vertex="1" parent="2ZF47CXnTHHWyCRd5WbP-160">
          <mxGeometry width="215" height="80" as="geometry" />
        </mxCell>
        <mxCell id="2ZF47CXnTHHWyCRd5WbP-163" value="Seu volume total de treino foi!&amp;nbsp;&lt;br style=&quot;font-size: 13px;&quot;&gt;Vamos aumentar 1% no próximo treino e assim progredir na sua performance ok" style="text;html=1;strokeColor=none;fillColor=none;align=left;verticalAlign=middle;whiteSpace=wrap;rounded=0;fontSize=13;" vertex="1" parent="2ZF47CXnTHHWyCRd5WbP-160">
          <mxGeometry x="7.5" y="10" width="200" height="60" as="geometry" />
        </mxCell>
      </root>
    </mxGraphModel>
  </diagram>
</mxfile>
